<?xml version="1.0" standalone="no"?>
<!DOCTYPE svg PUBLIC "-//W3C//DTD SVG 20010904//EN"
 "http://www.w3.org/TR/2001/REC-SVG-20010904/DTD/svg10.dtd">
<svg version="1.0" xmlns="http://www.w3.org/2000/svg"
 width="85.000000pt" height="76.000000pt" viewBox="0 0 85.000000 76.000000"
 preserveAspectRatio="xMidYMid meet">

<g transform="translate(0.000000,76.000000) scale(0.100000,-0.100000)"
fill="#000000" stroke="none">
<path d="M0 380 l0 -380 425 0 425 0 0 380 0 380 -425 0 -425 0 0 -380z m774
278 c13 -19 16 -59 16 -234 0 -202 -1 -212 -21 -230 -20 -18 -41 -19 -350 -19
-302 0 -330 1 -346 18 -16 15 -18 41 -21 204 -2 102 -1 201 3 219 12 66 2 64
370 64 334 0 334 0 349 -22z m-166 -575 c-8 -41 -358 -41 -366 0 -3 16 11 17
183 17 172 0 186 -1 183 -17z"/>
<path d="M400 595 c0 -8 -11 -22 -24 -30 -20 -13 -29 -14 -46 -5 -18 10 -25 9
-38 -4 -13 -12 -13 -18 -2 -31 17 -20 0 -60 -29 -70 -29 -9 -27 -43 3 -55 29
-11 41 -42 27 -69 -14 -25 10 -47 36 -33 21 13 73 -11 73 -33 0 -9 10 -15 25
-15 18 0 25 5 25 18 0 26 47 47 67 31 21 -18 49 12 35 37 -13 23 4 60 29 67
24 7 25 44 1 52 -26 8 -43 46 -30 69 14 25 -8 49 -32 36 -25 -14 -66 3 -73 29
-6 24 -47 29 -47 6z m96 -89 c28 -28 34 -41 34 -78 -1 -116 -151 -152 -205
-48 -19 37 -19 63 0 100 19 36 59 59 104 60 25 0 42 -9 67 -34z"/>
<path d="M376 484 c-9 -23 -7 -97 3 -113 7 -11 19 -9 62 16 29 16 55 35 57 41
2 6 -24 25 -56 41 -51 26 -61 28 -66 15z"/>
</g>
</svg>
