<svg xmlns="http://www.w3.org/2000/svg" viewBox="0 0 982.89 619.25">
<defs>
<style>.cls-1{fill:#b3b3b3;}</style>
</defs><title>logo slices</title>
<g id="L1">
<polygon class="cls-1" points="253.71 276.37 215.21 359.49 79.99 359.49 118.73 276.37 253.71 276.37"/>
</g>
<g id="L2">
<polygon class="cls-1" points="118.73 276.37 79.99 359.49 0 359.49 38.5 276.37 118.73 276.37"/>
</g>
<g id="L3">
<polygon class="cls-1" points="174.03 156.84 118.94 275.92 118.73 276.37 38.5 276.37 93.85 156.84 174.03 156.84"/>
</g>
<g id="L4">
<polygon class="cls-1" points="246.59 0 174.03 156.84 93.85 156.84 143.31 50.05 246.59 0"/>
</g><g id="O1">
<path class="cls-1" d="M318.66,263.57,263.54,382.66H378.26l55.23-119.09ZM365.13,343H313.9l24.62-53.2H389.8Z" transform="translate(-25.66 -23.16)"/>
</g>
<g id="O2">
<path class="cls-1" d="M442.16,263.58,387,382.66H501.76L557,263.58Zm54.91,37.53c-2.5,7.95-10.91,16.31-19.38,18.23l-3.59,50.81H436.79L469,319.47c-7.54-1.72-10.39-10.21-7.29-18.36,3.6-9.46,14.18-17.12,23.63-17.12S500,291.65,497.07,301.11Z" transform="translate(-25.66 -23.16)"/>
</g>
<g id="O3">
<path class="cls-1" d="M566.11,263.57,511,382.66H625.71l55.23-119.09ZM612.59,343H561.36l24.6-53.2h51.3Z" transform="translate(-25.66 -23.16)"/>
</g>
<g id="T1">
<polygon class="cls-1" points="758.51 240.41 702.82 359.49 622.91 359.49 678.1 240.41 758.51 240.41"/>
</g>
<g id="T2">
<polygon class="cls-1" points="791.15 170.35 768.06 220.11 768 220.11 758.51 240.41 678.1 240.41 687.51 220.11 687.42 220.11 710.32 170.35 791.15 170.35"/>
</g>
<g id="T3">
<polygon class="cls-1" points="710.32 170.35 687.42 220.11 607.95 220.11 631.12 170.35 710.32 170.35"/>
</g><g id="T4"><polygon class="cls-1" points="875.95 170.35 794.64 219.97 768.06 220.11 791.15 170.35 875.95 170.35"/></g><g id="T5"><polygon class="cls-1" points="843.15 57.76 791.03 170.35 710.58 170.35 738.66 109.61 843.15 57.76"/></g><g id="Y1"><polygon class="cls-1" points="828.9 308.27 823.03 320.94 823.05 320.94 805.26 359.51 725.18 359.51 775.82 250.28 791.82 240.41 860.31 240.41 828.9 308.27"/></g><g id="Y2"><polygon class="cls-1" points="878.13 320.94 860.27 359.51 805.26 359.51 823.05 320.94 878.13 320.94"/></g><g id="Y3"><polygon class="cls-1" points="982.89 267.79 940.33 359.57 860.26 359.57 860.29 359.51 860.27 359.51 878.13 320.94 878.16 320.94 902.8 267.79 982.89 267.79"/></g><g id="Y4"><polygon class="cls-1" points="940.33 359.57 885.14 478.58 805.16 478.58 860.26 359.57 940.33 359.57"/></g><g id="Y5"><polygon class="cls-1" points="885.14 478.58 827.72 602.41 740.02 619.25 805.16 478.58 885.14 478.58"/></g><g id="Y6"><polygon class="cls-1" points="887.68 181.28 860.31 240.41 791.82 240.41 887.68 181.28"/></g></svg>